<svg xmlns="http://www.w3.org/2000/svg" xmlns:xlink="http://www.w3.org/1999/xlink" xmlns:xodm="http://www.corel.com/coreldraw/odm/2003" xml:space="preserve" version="1.1" style="shape-rendering:geometricPrecision;text-rendering:geometricPrecision;image-rendering:optimizeQuality;" viewBox="0 0 846.66 1058.325" x="0px" y="0px" fill-rule="evenodd" clip-rule="evenodd"><defs><style type="text/css">
   
    .fil0 {fill:black;fill-rule:nonzero}
   
  </style></defs><g><path class="fil0" d="M199.02 531.35l122.84 -458.46 -32.56 9.28c-8.9,2.54 -16.01,6.29 -21.09,11.05 -4.57,4.27 -7.81,9.75 -9.55,16.24 -32.03,119.51 -64.06,239.01 -96.07,358.53 -1.7,6.35 -1.58,12.74 0.28,18.88l0.42 1.59c2.21,6.24 6.28,12.48 12.12,18.52l23.61 24.37zm-21.86 -313.77c-4.66,1.57 -8.89,3.65 -12.59,6.19 -7.32,5 -12.54,11.98 -14.76,20.29l-14.18 52.94c-2.25,8.4 -1.23,17.08 2.59,25.06 1.93,4.02 4.55,7.92 7.83,11.61l31.11 -116.09zm-45.52 169.86c-17.73,-11.71 -31.03,-26.83 -39.06,-43.56 -9.06,-18.91 -11.41,-39.67 -5.97,-59.98l14.18 -52.94c5.46,-20.39 17.89,-37.23 35.2,-49.07 15.23,-10.43 34.3,-16.83 55.59,-18.12l18.06 -67.41c4.17,-15.57 12.35,-29.08 24.05,-40.04 11.18,-10.46 25.25,-18.28 41.71,-22.97l75.6 -21.55c4.27,-1.21 8.91,-1.33 13.5,-0.1 13.53,3.61 21.57,17.53 17.96,31.06l-52.12 194.52 407.2 -0.01c14.02,0 25.4,11.38 25.4,25.4 0,2.12 -0.26,4.18 -0.75,6.14l-78.66 487.06c-3.74,23.13 -15.48,43.11 -32.15,57.3 -16.73,14.25 -38.3,22.67 -61.61,22.67l-219.6 0c-23.32,0 -44.87,-8.42 -61.61,-22.67 -16.68,-14.2 -28.42,-34.18 -32.14,-57.3l-31.98 -198 -7.98 29.78c-1.18,4.27 -3.45,8.3 -6.85,11.61 -10.02,9.75 -26.07,9.52 -35.82,-0.5l-54.7 -56.46c-11.31,-11.68 -19.35,-24.59 -23.94,-38.24l-0.9 -2.51c-4.59,-15.17 -4.89,-30.94 -0.68,-46.66l18.07 -67.45zm322.93 -29.46c0,-14.02 11.38,-25.4 25.4,-25.4 14.02,0 25.4,11.38 25.4,25.4l0 357.15c0,14.02 -11.38,25.4 -25.4,25.4 -14.02,0 -25.4,-11.38 -25.4,-25.4l0 -357.15zm116.2 -1.89c1.04,-13.97 13.22,-24.45 27.19,-23.41 13.97,1.04 24.45,13.22 23.41,27.19l-27.65 357.15c-1.04,13.97 -13.22,24.45 -27.19,23.41 -13.97,-1.04 -24.45,-13.22 -23.41,-27.19l27.65 -357.15zm-153.94 357.15c1.04,13.97 -9.44,26.15 -23.41,27.19 -13.97,1.04 -26.15,-9.44 -27.19,-23.41l-27.65 -357.15c-1.04,-13.97 9.44,-26.15 23.41,-27.19 13.97,-1.04 26.15,9.44 27.19,23.41l27.65 357.15zm290.97 -425.17l-391.06 0 -40.3 150.4 49.98 309.46c1.75,10.85 7.19,20.19 14.88,26.74 7.65,6.51 17.74,10.37 28.87,10.37l219.6 0c11.12,0 21.22,-3.85 28.87,-10.37 7.69,-6.55 13.14,-15.88 14.89,-26.74l74.27 -459.86z"/></g><text x="0" y="861.66" fill="#000000" font-size="5px" font-weight="bold" font-family="'Helvetica Neue', Helvetica, Arial-Unicode, Arial, Sans-serif">Created by Tsundere Project</text><text x="0" y="866.66" fill="#000000" font-size="5px" font-weight="bold" font-family="'Helvetica Neue', Helvetica, Arial-Unicode, Arial, Sans-serif">from the Noun Project</text></svg>